PathFileType	4	(X/Y/Z)	D:\luciana\static.trc
DataRate	CameraRate	NumFrames	NumMarkers	Units	OrigDataRate	OrigDataStartFrame	OrigNumFrames
250.00	250.00	12	21	mm	250.00	462	922
Frame#	Time	pelvisR			PelvisL			Trunk1			Trunk2			Trunk3			C7			shoulder			upperArm1			upperArm2			upperArm3			elbow			forearm1			forearm2			forearm3			wrist1			wrist2			wrist3			wristOut			wristIn			elbowInt			hand			
		X1	Y1	Z1	X2	Y2	Z2	X3	Y3	Z3	X4	Y4	Z4	X5	Y5	Z5	X6	Y6	Z6	X7	Y7	Z7	X8	Y8	Z8	X9	Y9	Z9	X10	Y10	Z10	X11	Y11	Z11	X12	Y12	Z12	X13	Y13	Z13	X14	Y14	Z14	X15	Y15	Z15	X16	Y16	Z16	X17	Y17	Z17	X18	Y18	Z18	X19	Y19	Z19	X20	Y20	Z20	X21	Y21	Z21	

461	1.844000	1409.860730	637.559712	656.289220	1744.295835	653.313398	651.595771	1516.454577	871.691823	563.003182	1579.903603	818.636417	561.805069	1491.500497	778.935730	563.885689	1581.486583	1131.848097	743.381381	1752.082348	1067.141414	677.257061	1861.721039	931.140542	774.044633	1903.279185	941.864252	710.912943	1851.745605	916.178048	651.947021	1916.007400	797.705770	702.602506	1921.610117	701.241493	718.101203	1935.749531	731.449246	643.228054	1872.010469	766.096473	626.507223	1836.292028	673.829317	544.136524	1868.924856	614.022732	584.846199	1775.028825	693.465650	580.457568	1822.914481	603.302658	562.844276	1767.536640	646.034420	562.956691	1857.610822	762.621999	766.552567	1791.695118	610.508263	502.735615	
462	1.848000	1409.855723	637.574673	656.302333	1744.297266	653.317034	651.587784	1516.463518	871.703684	563.011646	1579.894900	818.629980	561.801970	1491.488934	778.938532	563.862264	1581.500292	1131.854177	743.375301	1752.083778	1067.144632	677.247703	1861.728430	931.140184	774.041414	1903.285980	941.866875	710.916758	1851.743460	916.179240	651.946604	1916.010499	797.698975	702.593088	1921.609282	701.240718	718.096912	1935.775399	731.446028	643.219471	1872.015238	766.098499	626.494706	1836.287498	673.825860	544.130206	1868.768573	613.954663	585.114121	1775.033236	693.464220	580.456555	1822.915792	603.296101	562.841296	1767.527103	646.010220	562.954068	1857.619166	762.620986	766.531646	1791.695476	610.495329	502.743900	
463	1.852000	1409.868240	637.578845	656.289816	1744.302869	653.320313	651.576757	1516.473770	871.714473	563.010931	1579.904437	818.637073	561.796308	1491.496086	778.946340	563.859761	1581.509471	1131.849647	743.381321	1752.096891	1067.150354	677.245021	1861.724854	931.132436	774.035215	1903.290033	941.871762	710.915208	1851.749063	916.170657	651.950419	1916.019201	797.697544	702.585101	1921.614885	701.239705	718.090355	1935.771465	731.451631	643.217385	1872.028470	766.097963	626.493931	1836.297631	673.821330	544.132710	1868.739367	613.931656	585.193455	1775.034904	693.459332	580.451965	1822.926044	603.302777	562.820435	1767.539740	646.018028	562.982321	1857.644558	762.635589	766.560018	1791.686416	610.492647	502.734900	
464	1.856000	1409.877539	637.586057	656.281829	1744.300246	653.329253	651.587367	1516.490221	871.729136	562.998056	1579.910994	818.645597	561.787248	1491.494417	778.959095	563.858032	1581.504345	1131.842375	743.389547	1752.105355	1067.154050	677.238286	1861.740589	931.136012	774.039865	1903.295279	941.866517	710.918128	1851.761460	916.169763	651.952863	1916.032076	797.699690	702.587008	1921.627045	701.245427	718.092322	1935.778856	731.465220	643.204331	1872.041225	766.099095	626.490295	1836.302161	673.822522	544.131339	1868.728399	613.929033	585.207701	1775.039196	693.458080	580.451190	1822.915792	603.297949	562.828541	1767.559648	646.019757	562.965930	1857.651234	762.643933	766.555607	1791.678548	610.492349	502.722740	
465	1.860000	1409.870148	637.579501	656.290412	1744.301319	653.334022	651.560843	1516.518235	871.741176	562.983871	1579.915762	818.651974	561.778903	1491.494775	778.972030	563.835263	1581.507325	1131.845474	743.389428	1752.110839	1067.148447	677.240133	1861.755133	931.141496	774.040103	1903.298497	941.865504	710.920811	1851.767421	916.171014	651.959896	1916.031480	797.705531	702.581644	1921.635389	701.243997	718.093693	1935.771465	731.448591	643.197894	1872.043610	766.105533	626.496077	1836.304903	673.824191	544.128656	1868.714094	613.932669	585.209906	1775.038481	693.454921	580.454707	1822.933435	603.293896	562.823594	1767.561555	646.021426	562.945783	1857.644677	762.632251	766.526282	1791.684270	610.495389	502.730966	
466	1.864000	1409.854531	637.571216	656.307220	1744.298339	653.353274	651.550353	1516.505480	871.746898	563.021004	1579.913497	818.662405	561.776996	1491.490364	778.969884	563.839436	1581.515551	1131.843090	743.389010	1752.115488	1067.146778	677.235007	1861.758828	931.144118	774.036884	1903.310061	941.870809	710.926354	1851.773739	916.184068	651.956499	1916.037083	797.711372	702.572227	1921.631455	701.244354	718.089938	1935.809612	731.459439	643.204093	1872.054338	766.103089	626.496792	1836.308122	673.826993	544.121742	1868.729353	613.932252	585.205615	1775.040030	693.455100	580.446243	1822.937727	603.277385	562.838316	1767.568707	646.046042	562.948525	1857.650161	762.635171	766.532421	1791.702032	610.504568	502.729595	
467	1.868000	1409.868956	637.563825	656.294346	1744.298100	653.363407	651.573956	1516.496062	871.756375	563.032746	1579.919815	818.670630	561.775088	1491.498470	778.977573	563.805580	1581.514835	1131.851315	743.388295	1752.127886	1067.160606	677.242696	1861.765265	931.148946	774.046421	1903.316140	941.867590	710.931838	1851.785779	916.198492	651.960492	1916.043758	797.713518	702.569485	1921.640754	701.244712	718.094349	1935.810447	731.468737	643.195271	1872.059584	766.100347	626.482844	1836.306572	673.828661	544.131398	1868.746400	613.923550	585.204720	1775.047779	693.458438	580.442011	1822.945356	603.280902	562.841237	1767.586708	646.057367	562.959194	1857.648373	762.630761	766.541481	1791.701078	610.503554	502.728939	
468	1.872000	1409.881234	637.562096	656.274080	1744.305015	653.363824	651.567459	1516.524673	871.772945	563.046336	1579.926848	818.689942	561.767459	1491.498828	779.006183	563.796997	1581.522584	1131.846786	743.388891	1752.135277	1067.176104	677.239299	1861.763954	931.143165	774.035335	1903.324366	941.869974	710.930705	1851.794362	916.202784	651.963711	1916.040897	797.718525	702.575088	1921.645880	701.236725	718.095243	1935.813904	731.469870	643.203795	1872.048855	766.100407	626.474142	1836.306691	673.830867	544.135511	1868.842125	613.964319	585.040450	1775.045753	693.465054	580.445766	1822.924376	603.284538	562.825263	1767.613649	646.089971	563.003421	1857.655764	762.641311	766.555905	1791.702867	610.522032	502.714276	
469	1.876000	1409.873843	637.573242	656.262994	1744.306922	653.386056	651.574075	1516.522408	871.785581	563.076854	1579.936266	818.706632	561.769366	1491.490126	779.021859	563.789606	1581.532478	1131.848335	743.382215	1752.143145	1067.169785	677.237213	1861.766696	931.142032	774.041653	1903.326511	941.871107	710.931778	1851.796150	916.192412	651.965320	1916.049004	797.724843	702.571869	1921.646476	701.243997	718.096614	1935.824037	731.471241	643.207133	1872.042179	766.098320	626.488388	1836.315393	673.834503	544.131815	1868.958473	614.029765	584.843516	1775.052667	693.466604	580.448985	1822.924852	603.286028	562.849522	1767.650127	646.125495	563.064158	1857.658625	762.643397	766.555905	1791.686773	610.524952	502.726793	
470	1.880000	1409.878373	637.567937	656.248450	1744.308472	653.385282	651.564717	1516.514778	871.805251	563.076973	1579.942107	818.719268	561.760724	1491.498709	779.018760	563.782215	1581.549048	1131.855845	743.381739	1752.170205	1067.169666	677.259207	1861.765623	931.144059	774.042189	1903.326511	941.872716	710.930943	1851.810932	916.200697	651.962519	1916.046381	797.711909	702.576578	1921.647072	701.247752	718.101919	1935.826182	731.467605	643.218517	1872.046351	766.094267	626.487434	1836.321115	673.847795	544.126093	1868.893504	614.017069	584.944785	1775.057077	693.459928	580.454111	1822.925568	603.296340	562.859416	1767.594576	646.058619	562.987983	1857.657909	762.651086	766.545653	1791.691780	610.524356	502.741158	
471	1.884000	1409.891486	637.558103	656.270087	1744.323850	653.361201	651.576698	1516.524434	871.815681	563.040078	1579.957604	818.735600	561.743140	1491.503239	779.033065	563.785493	1581.539512	1131.862998	743.388891	1752.172112	1067.176223	677.260339	1861.773014	931.141257	774.047315	1903.326988	941.868603	710.930705	1851.822615	916.199028	651.964366	1916.046381	797.710896	702.588558	1921.648502	701.248169	718.101740	1935.813427	731.464446	643.234909	1872.058868	766.095877	626.479864	1836.328268	673.846722	544.126630	1868.987322	614.047766	584.816813	1775.061131	693.457127	580.454648	1822.937608	603.312254	562.841415	1767.576337	646.049261	562.967658	1857.644081	762.634814	766.532838	1791.710854	610.529006	502.735078	
472	1.888000	1409.926295	637.543082	656.274378	1744.331241	653.320014	651.593387	1516.529083	871.830881	563.026845	1579.965591	818.745375	561.724603	1491.508007	779.044390	563.781500	1581.557155	1131.866813	743.379831	1752.171040	1067.183256	677.257538	1861.775398	931.138456	774.052382	1903.334618	941.873491	710.926533	1851.818681	916.187406	651.969373	1916.052103	797.713161	702.584147	1921.639800	701.233983	718.097389	1935.794115	731.459141	643.223524	1872.076631	766.106665	626.481771	1836.326838	673.845172	544.126391	1868.804216	613.978684	585.117459	1775.064349	693.451107	580.457330	1822.959542	603.304982	562.839508	1767.592192	646.085978	563.028574	1857.644677	762.630224	766.526043	1791.717410	610.527992	502.725661	
